<?xml version="1.0" encoding="utf-8"?>
<!-- Generator: Adobe Illustrator 16.0.0, SVG Export Plug-In . SVG Version: 6.00 Build 0)  -->
<!DOCTYPE svg PUBLIC "-//W3C//DTD SVG 1.1//EN" "http://www.w3.org/Graphics/SVG/1.1/DTD/svg11.dtd">
<svg version="1.1" id="icon" xmlns="http://www.w3.org/2000/svg" xmlns:xlink="http://www.w3.org/1999/xlink" x="0px" y="0px"
	 width="800px" height="600px" viewBox="0 0 800 600" enable-background="new 0 0 800 600" xml:space="preserve">
<circle fill="#FFFFFF" stroke="#231F20" stroke-width="16" stroke-miterlimit="10" cx="389.174" cy="304.794" r="292.068"/>
<ellipse transform="matrix(-0.9744 -0.2248 0.2248 -0.9744 552.7665 486.826)" fill="none" stroke="#231F20" stroke-width="7" stroke-miterlimit="10" cx="304.097" cy="211.946" rx="29.459" ry="26.705"/>
<ellipse transform="matrix(-0.9744 -0.2248 0.2248 -0.9744 715.8988 422.7507)" fill="#231F20" cx="382.015" cy="170.621" rx="18.06" ry="14.999"/>
<ellipse transform="matrix(-0.9744 -0.2248 0.2248 -0.9744 496.4534 663.7698)" fill="#231F20" cx="286.015" cy="303.622" rx="18.06" ry="14.999"/>
<ellipse transform="matrix(-0.9744 -0.2248 0.2248 -0.9744 1026.7656 696.1531)" fill="#231F20" cx="553.016" cy="289.622" rx="18.06" ry="14.999"/>
<ellipse transform="matrix(-0.9744 -0.2248 0.2248 -0.9744 898.3794 512.1745)" fill="none" stroke="#231F20" stroke-width="7" stroke-miterlimit="10" cx="478.346" cy="204.945" rx="39.52" ry="33.619"/>
<ellipse transform="matrix(-0.9744 -0.2248 0.2248 -0.9744 695.6518 659.093)" fill="none" stroke="#231F20" stroke-width="7" stroke-miterlimit="10" cx="385.346" cy="289.945" rx="33.616" ry="28.597"/>
<ellipse transform="matrix(-0.9744 -0.2248 0.2248 -0.9744 590.2518 847.0903)" fill="none" stroke="#231F20" stroke-width="7" stroke-miterlimit="10" cx="343.346" cy="389.945" rx="29.186" ry="24.828"/>
<ellipse transform="matrix(-0.9744 -0.2248 0.2248 -0.9744 873.9854 849.3972)" fill="none" stroke="#231F20" stroke-width="7" stroke-miterlimit="10" cx="485.346" cy="374.945" rx="39.52" ry="33.619"/>
</svg>
